# xmcd CD database file
#
# Track frame offsets:
#	182
#	35957
#	66557
#	100832
#	132632
#	166607
#	192932
#
# Disc length: 3311 seconds
#
# Revision: 0
# Processed by: cddbd v1.4PL0 Copyright (c) Steve Scherf et al.
# Submitted via: CDex 1.50beta9
#
DISCID=660ced07
DTITLE=Duo Due - Tre
DYEAR=1989
DGENRE=Jazz
TTITLE0=Ouverture
TTITLE1=Vogel tut noot
TTITLE2=Waltz in the woods
TTITLE3=Veteran's day
TTITLE4=The plan
TTITLE5=Sushi moto
TTITLE6=Unseren lieben Frauen
EXTD=YEAR: 1989
EXTT0=
EXTT1=
EXTT2=
EXTT3=
EXTT4=
EXTT5=
EXTT6=
PLAYORDER=
